<svg viewBox="0 0 191 47" xmlns="http://www.w3.org/2000/svg" data-logo="logo">
        <g transform="translate(0, 3) rotate(0)" id="logogram" style="opacity: 1;"><path fill="#FFFFFF" d="M9.00537 3.67782C7.57471 4.67818 6.28101 5.86093 5.15796 7.19235C9.74726 6.76628 15.5778 7.462 22.347 10.8466C29.5756 14.4608 35.3964 14.583 39.4474 13.8016C39.0798 12.6887 38.617 11.6191 38.0689 10.6023C33.4316 11.0914 27.4866 10.444 20.5582 6.97993C16.1586 4.78013 12.2804 3.87396 9.00537 3.67782ZM35.36 6.7466C31.6979 2.65495 26.376 0.0799561 20.4526 0.0799561C18.7131 0.0799561 17.0253 0.302063 15.4163 0.719436C17.5955 1.31404 19.9105 2.18394 22.347 3.40222C27.4196 5.93848 31.799 6.75511 35.36 6.7466ZM40.3135 17.708C35.4195 18.6744 28.6614 18.4759 20.5582 14.4243C12.9826 10.6365 6.95307 10.6842 2.88654 11.5879C2.67664 11.6345 2.47168 11.6835 2.27167 11.7345C1.73926 12.8924 1.31427 14.11 1.00934 15.3744C1.33502 15.2874 1.67157 15.2047 2.0188 15.1275C6.95221 14.0312 13.9227 14.0788 22.347 18.291C29.9227 22.0788 35.9522 22.0311 40.0188 21.1274C40.1581 21.0965 40.2954 21.0645 40.4304 21.0315C40.4452 20.7162 40.4526 20.3989 40.4526 20.0799C40.4526 19.2774 40.4054 18.4859 40.3135 17.708ZM39.7774 25.2522C34.9309 26.0995 28.3696 25.7743 20.5582 21.8687C12.9826 18.0809 6.95307 18.1286 2.88654 19.0323C1.98389 19.2328 1.17188 19.4771 0.455567 19.735C0.453614 19.8497 0.452637 19.9647 0.452637 20.0799C0.452637 31.1256 9.40693 40.0799 20.4526 40.0799C29.7097 40.0799 37.4979 33.7908 39.7774 25.2522Z" clip-rule="evenodd" fill-rule="evenodd"></path></g>
        <g transform="translate(47, 1)" id="logotype" style="opacity: 1;"><path d="M10.67 30.30L10.67 30.30L10.44 30.76Q10.44 31.26 11.84 31.71Q13.23 32.16 14.90 32.16Q16.56 32.16 18.56 31.67Q20.56 31.17 22.04 30.45Q23.52 29.74 24.48 28.95Q25.45 28.16 25.45 27.58L25.45 27.58Q25.45 26.85 23.74 26.22Q22.03 25.58 18.77 24.82Q15.52 24.06 14.01 22.90Q12.49 21.74 12.49 20.07Q12.49 18.41 13.69 16.88Q14.89 15.36 16.81 14.18Q18.73 13.01 21.00 12.08L21.00 12.08Q25.70 10.19 29.72 10.19L29.72 10.19Q31.26 10.19 32.44 10.46L32.44 10.46Q34.69 10.99 34.69 11.86Q34.69 12.73 34.54 13.05Q34.39 13.36 34.29 13.47Q34.20 13.57 34.05 13.67Q33.91 13.77 33.84 13.83L33.84 13.83Q33.09 14.46 29.72 14.61L29.72 14.61Q28.56 14.66 28.46 14.73Q28.35 14.80 28.28 14.80Q28.20 14.80 28.10 14.66Q27.99 14.53 27.99 14.22Q27.99 13.91 28.66 13.09L28.66 13.09Q26.58 13.21 24.21 14.05Q21.84 14.89 20.10 15.94Q18.36 16.99 17.19 18.00Q16.03 19.02 16.03 19.44Q16.03 19.86 16.29 20.13L16.29 20.13Q17.01 20.90 20.27 21.74L20.27 21.74Q23.65 22.61 24.78 23.14Q25.91 23.67 26.65 24.15Q27.40 24.63 27.84 25.12L27.84 25.12Q28.88 26.32 28.88 27.55Q28.88 28.78 28.23 29.86Q27.57 30.93 26.24 31.94Q24.92 32.95 23.12 33.74L23.12 33.74Q19.19 35.50 13.76 35.50L13.76 35.50Q9.79 35.50 8.70 33.39L8.70 33.39Q8.41 32.86 8.41 32.29Q8.41 31.72 8.67 31.26Q8.94 30.80 9.32 30.56L9.32 30.56Q10.05 30.10 10.36 30.10Q10.67 30.10 10.67 30.30ZM41.41 13.09L42.21 12.99L42.91 13.16Q43.07 13.16 43.19 13.31Q43.31 13.47 43.31 13.60Q43.31 13.74 42.95 14.34Q42.59 14.94 42.10 15.70Q41.62 16.46 41.58 16.53L41.58 16.53Q42.91 16.42 43.47 16.42Q44.02 16.42 44.23 16.50Q44.44 16.58 44.70 16.93Q44.96 17.28 45.19 17.46Q45.41 17.64 45.41 18.00Q45.41 18.35 44.97 18.60Q44.54 18.85 44.04 18.90L44.04 18.90Q40.08 19.29 39.67 19.31L39.67 19.31Q38.28 21.43 35.80 25.92Q33.31 30.40 33.16 31.53L33.16 31.53Q33.09 32.04 33.09 32.37L33.09 32.37Q33.09 33.03 33.79 33.03Q34.49 33.03 35.34 32.50Q36.20 31.96 36.92 31.33L36.92 31.33Q38.83 29.62 38.97 29.62L38.97 29.62Q39.41 29.62 39.41 31.15L39.41 31.15Q39.41 31.99 38.64 32.66L38.64 32.66Q36.92 34.15 35.74 34.90Q34.56 35.65 33.38 35.65L33.38 35.65Q33.12 35.65 32.90 35.60L32.90 35.60Q31.53 35.34 30.89 34.60Q30.25 33.85 30.26 32.59Q30.27 31.33 31.01 29.52Q31.75 27.72 32.88 25.69L32.88 25.69Q34.73 22.37 36.57 19.47L36.57 19.47L35.92 19.55Q33.94 19.77 33.62 19.77L33.62 19.77L33.46 19.77Q32.97 19.77 32.51 19.58Q32.04 19.38 32.04 19.09Q32.04 18.80 32.29 18.53Q32.54 18.25 32.59 18.10L32.59 18.10Q32.71 17.72 33.49 17.26Q34.27 16.80 34.66 16.77Q35.05 16.75 35.42 16.73Q35.79 16.71 36.24 16.70Q36.69 16.68 36.93 16.66L36.93 16.66L38.47 16.59Q39.91 14.44 40.44 13.83Q40.98 13.21 41.07 13.15Q41.15 13.09 41.41 13.09L41.41 13.09ZM51.01 22.01L51.01 22.01Q52.31 22.01 52.31 22.90L52.31 22.90Q52.31 23.38 52.09 23.60Q51.87 23.82 51.14 25.08Q50.42 26.34 49.54 28.29Q48.66 30.25 48.40 31.63L48.40 31.63Q48.35 31.80 48.35 32.11L48.35 32.11Q48.35 33.05 48.86 33.05Q49.37 33.05 50.07 32.56Q50.78 32.08 51.32 31.52Q51.87 30.97 52.39 30.39Q52.91 29.80 53.01 29.72Q53.12 29.63 53.32 29.63L53.32 29.63Q53.65 29.63 53.71 30.13Q53.78 30.63 53.78 31.15Q53.78 31.68 53.68 31.89L53.68 31.89Q53.19 32.86 51.50 34.23Q49.82 35.60 48.44 35.60Q47.07 35.60 46.42 34.76Q45.77 33.92 45.77 32.91Q45.77 31.89 46.11 31.12L46.11 31.12Q44.69 32.97 42.85 34.25Q41.02 35.53 39.85 35.53Q38.69 35.53 37.96 34.83L37.96 34.83Q37.02 33.96 37.02 32.41Q37.02 30.86 37.71 29.30Q38.40 27.74 39.53 26.45Q40.66 25.16 42.01 24.10L42.01 24.10Q44.85 21.88 47.24 21.88L47.24 21.88Q48.16 21.88 48.74 22.18Q49.32 22.49 49.48 22.95L49.48 22.95Q49.89 22.34 50.17 22.17Q50.45 22.01 51.01 22.01ZM48.74 23.91L48.74 23.91Q45.82 23.91 42.69 27.16L42.69 27.16Q41.58 28.32 40.65 29.94Q39.72 31.56 39.72 32.16Q39.72 32.76 40.06 32.76L40.06 32.76Q40.54 32.76 42.73 30.87Q44.91 28.98 45.63 28.10L45.63 28.10Q46.42 27.10 48.74 23.91ZM57.41 40.67L57.41 40.67Q57.32 40.76 56.89 41.54Q56.45 42.31 55.95 43.11Q55.46 43.90 54.73 44.62Q54.01 45.34 53.52 45.40Q53.03 45.46 52.89 45.46L52.89 45.46Q51.32 45.46 51.32 43.87L51.32 43.87Q51.32 42.01 53.25 39.51L53.25 39.51Q53.99 38.57 55.10 37.49Q56.21 36.40 56.31 36.26Q56.42 36.11 58.88 31.46L58.88 31.46Q57.24 33.26 55.83 34.38Q54.43 35.50 53.13 35.63L53.13 35.63L53.01 35.63Q52.35 35.63 51.70 35.20Q51.05 34.76 51.05 33.67L51.05 33.67Q51.05 32.04 51.92 30.52L51.92 30.52Q52.23 29.99 52.99 28.73Q53.75 27.46 54.40 26.28L54.40 26.28Q55.01 25.34 55.66 24.10Q56.31 22.85 56.65 22.31Q57.00 21.77 57.30 21.77Q57.61 21.77 58.10 22.16Q58.59 22.54 58.59 23.07Q58.59 23.60 56.35 27.67Q54.11 31.74 54.11 32.30L54.11 32.30Q54.11 32.44 54.24 32.44L54.24 32.44Q54.71 32.44 56.29 31.13Q57.87 29.82 59.78 27.77L59.78 27.77Q61.92 25.50 63.13 23.62L63.13 23.62Q63.29 23.38 63.38 23.25Q63.47 23.12 63.62 22.91Q63.76 22.70 63.86 22.58Q63.95 22.46 64.08 22.29Q64.21 22.13 64.31 22.05Q64.41 21.96 64.53 21.88L64.53 21.88Q64.72 21.70 64.95 21.70Q65.18 21.70 65.65 21.81Q66.12 21.91 66.22 22.03Q66.31 22.15 66.41 22.25L66.41 22.25Q66.58 22.44 66.58 22.60Q66.58 22.76 66.45 23.03Q66.31 23.29 64.86 25.74L64.86 25.74Q60.58 32.95 58.98 36.26L58.98 36.26Q61.58 34.08 66.29 29.79L66.29 29.79Q66.48 29.63 66.67 29.63L66.67 29.63Q67.20 29.63 67.20 31.26L67.20 31.26Q67.20 31.74 67.03 31.89L67.03 31.89Q61.92 35.82 57.41 40.67ZM65.88 35.10L65.88 35.10L65.05 35.07L64.74 35.07Q64.57 35.02 64.37 34.86Q64.17 34.71 64.07 34.64Q63.97 34.57 63.97 34.39Q63.97 34.21 64.11 33.77L64.11 33.77Q67.44 26.44 70.55 22.05L70.55 22.05Q70.89 21.57 71.65 21.32Q72.41 21.07 73.13 21.07L73.13 21.07Q73.56 21.07 73.56 21.74L73.56 21.74Q73.56 21.93 73.42 22.24Q73.28 22.56 72.74 23.28Q72.19 23.99 71.44 24.92Q70.69 25.84 70.58 25.98L70.58 25.98Q72.92 23.55 74.81 22.36Q76.70 21.17 77.55 21.17Q78.39 21.17 78.85 21.66Q79.30 22.15 79.30 22.70Q79.30 23.26 79.22 23.63Q79.14 23.99 78.94 24.40Q78.73 24.80 78.59 25.08Q78.44 25.36 78.10 25.81Q77.76 26.27 77.63 26.44Q77.50 26.61 77.10 27.09Q76.70 27.57 76.67 27.62L76.67 27.62Q77.15 27.14 78.00 26.20Q78.85 25.26 79.44 24.63Q80.03 23.99 80.92 23.20Q81.81 22.40 82.58 21.91L82.58 21.91Q84.43 20.75 86.32 20.75L86.32 20.75Q86.97 20.75 87.42 21.16Q87.86 21.57 87.86 22.14Q87.86 22.71 86.48 24.87Q85.09 27.04 83.72 29.22Q82.34 31.39 82.34 31.96L82.34 31.96Q82.34 32.74 82.63 32.89Q82.92 33.03 83.33 33.00Q83.74 32.97 84.49 32.47Q85.23 31.98 85.81 31.45L85.81 31.45Q86.75 30.59 87.55 29.79L87.55 29.79Q87.72 29.63 87.93 29.63L87.93 29.63Q88.25 29.63 88.32 30.13Q88.39 30.63 88.39 31.15Q88.39 31.68 88.29 31.89L88.29 31.89Q87.79 32.85 86.10 34.23Q84.41 35.62 82.85 35.62L82.85 35.62Q82.67 35.62 82.58 35.60L82.58 35.60Q80.82 35.43 80.14 34.63Q79.47 33.84 79.47 32.74Q79.47 31.65 80.21 30.10Q80.96 28.54 81.84 27.28Q82.73 26.01 83.48 24.99Q84.22 23.98 84.22 23.89Q84.22 23.81 84.08 23.81L84.08 23.81Q83.55 23.81 81.73 25.52L81.73 25.52Q78.60 28.44 76.32 31.15L76.32 31.15Q75.73 31.87 73.49 34.79L73.49 34.79Q73.23 35.14 72.68 35.14Q72.12 35.14 71.52 34.92Q70.92 34.71 70.92 34.37L70.92 34.37Q70.92 34.20 73.64 29.57Q76.36 24.95 76.36 24.53Q76.36 24.11 75.85 24.11Q75.35 24.11 73.78 25.62L73.78 25.62Q69.45 29.75 67.08 33.84L67.08 33.84Q66.93 34.08 66.48 34.59Q66.04 35.10 65.88 35.10ZM100.22 22.01L100.22 22.01Q101.52 22.01 101.52 22.90L101.52 22.90Q101.52 23.38 101.29 23.60Q101.07 23.82 100.34 25.08Q99.62 26.34 98.74 28.29Q97.86 30.25 97.60 31.63L97.60 31.63Q97.55 31.80 97.55 32.11L97.55 32.11Q97.55 33.05 98.06 33.05Q98.58 33.05 99.28 32.56Q99.98 32.08 100.52 31.52Q101.07 30.97 101.59 30.39Q102.11 29.80 102.22 29.72Q102.32 29.63 102.52 29.63L102.52 29.63Q102.85 29.63 102.92 30.13Q102.98 30.63 102.98 31.15Q102.98 31.68 102.88 31.89L102.88 31.89Q102.39 32.86 100.70 34.23Q99.02 35.60 97.64 35.60Q96.27 35.60 95.62 34.76Q94.97 33.92 94.97 32.91Q94.97 31.89 95.31 31.12L95.31 31.12Q93.89 32.97 92.06 34.25Q90.22 35.53 89.06 35.53Q87.89 35.53 87.16 34.83L87.16 34.83Q86.22 33.96 86.22 32.41Q86.22 30.86 86.91 29.30Q87.60 27.74 88.73 26.45Q89.86 25.16 91.21 24.10L91.21 24.10Q94.05 21.88 96.44 21.88L96.44 21.88Q97.36 21.88 97.94 22.18Q98.52 22.49 98.68 22.95L98.68 22.95Q99.09 22.34 99.37 22.17Q99.65 22.01 100.22 22.01ZM97.94 23.91L97.94 23.91Q95.02 23.91 91.89 27.16L91.89 27.16Q90.78 28.32 89.85 29.94Q88.92 31.56 88.92 32.16Q88.92 32.76 89.26 32.76L89.26 32.76Q89.74 32.76 91.93 30.87Q94.12 28.98 94.83 28.10L94.83 28.10Q95.62 27.10 97.94 23.91ZM112.38 13.09L113.19 12.99L113.89 13.16Q114.04 13.16 114.16 13.31Q114.28 13.47 114.28 13.60Q114.28 13.74 113.92 14.34Q113.56 14.94 113.08 15.70Q112.59 16.46 112.56 16.53L112.56 16.53Q113.89 16.42 114.44 16.42Q115.00 16.42 115.20 16.50Q115.41 16.58 115.67 16.93Q115.94 17.28 116.16 17.46Q116.38 17.64 116.38 18.00Q116.38 18.35 115.95 18.60Q115.51 18.85 115.02 18.90L115.02 18.90Q111.05 19.29 110.64 19.31L110.64 19.31Q109.26 21.43 106.77 25.92Q104.28 30.40 104.13 31.53L104.13 31.53Q104.06 32.04 104.06 32.37L104.06 32.37Q104.06 33.03 104.76 33.03Q105.46 33.03 106.32 32.50Q107.17 31.96 107.89 31.33L107.89 31.33Q109.80 29.62 109.94 29.62L109.94 29.62Q110.38 29.62 110.38 31.15L110.38 31.15Q110.38 31.99 109.62 32.66L109.62 32.66Q107.89 34.15 106.71 34.90Q105.53 35.65 104.35 35.65L104.35 35.65Q104.10 35.65 103.87 35.60L103.87 35.60Q102.51 35.34 101.87 34.60Q101.22 33.85 101.23 32.59Q101.24 31.33 101.99 29.52Q102.73 27.72 103.86 25.69L103.86 25.69Q105.70 22.37 107.55 19.47L107.55 19.47L106.90 19.55Q104.92 19.77 104.59 19.77L104.59 19.77L104.44 19.77Q103.94 19.77 103.48 19.58Q103.02 19.38 103.02 19.09Q103.02 18.80 103.27 18.53Q103.51 18.25 103.57 18.10L103.57 18.10Q103.69 17.72 104.46 17.26Q105.24 16.80 105.63 16.77Q106.03 16.75 106.39 16.73Q106.76 16.71 107.21 16.70Q107.67 16.68 107.91 16.66L107.91 16.66L109.44 16.59Q110.88 14.44 111.42 13.83Q111.96 13.21 112.04 13.15Q112.13 13.09 112.38 13.09L112.38 13.09ZM115.26 24.61L114.54 25.69Q118.57 21.11 121.41 21.11L121.41 21.11Q122.11 21.11 122.56 21.52Q123.01 21.94 123.01 22.61Q123.01 23.28 122.07 24.84Q121.12 26.40 120.31 27.48L120.31 27.48Q119.89 28.03 119.35 28.03Q118.81 28.03 118.51 27.63Q118.21 27.24 118.21 26.71L118.21 26.71Q118.21 25.53 119.48 24.05L119.48 24.05L119.44 24.01Q118.88 24.06 116.65 26.23Q114.42 28.40 112.85 30.12Q111.29 31.84 109.46 34.30L109.46 34.30Q108.93 35.03 108.56 35.03Q108.20 35.03 107.59 34.80Q106.98 34.57 106.86 34.47Q106.73 34.37 106.73 34.13Q106.73 33.89 106.86 33.57Q107.00 33.26 107.37 32.68Q107.74 32.09 108.48 30.80Q109.22 29.50 110.79 26.87Q112.37 24.23 112.67 23.69L112.67 23.69Q113.32 22.56 113.73 22.05L113.73 22.05Q114.50 21.07 116.33 21.07L116.33 21.07Q116.74 21.07 116.74 21.58L116.74 21.58Q116.74 22.39 115.26 24.61L115.26 24.61ZM132.29 16.24L132.29 16.24Q132.29 17.21 131.39 18.19Q130.48 19.17 129.50 19.17Q128.52 19.17 128.52 18.15Q128.52 17.12 129.38 16.19Q130.24 15.26 131.29 15.26L131.29 15.26Q131.75 15.26 132.02 15.52Q132.29 15.77 132.29 16.24ZM129.53 31.15L129.53 31.15Q129.53 31.67 129.42 31.89L129.42 31.89Q128.59 33.60 126.76 34.65Q124.93 35.70 123.58 35.70Q122.23 35.70 121.25 34.79Q120.28 33.89 120.28 32.95Q120.28 32.01 121.22 30.21Q122.16 28.42 123.10 26.90Q124.04 25.38 124.04 25.25Q124.04 25.12 123.69 24.75Q123.34 24.37 123.34 24.19Q123.34 24.01 124.05 23.25Q124.76 22.49 125.77 21.75Q126.79 21.00 127.33 21.00Q127.87 21.00 128.29 21.48Q128.72 21.96 128.72 22.35Q128.72 22.75 124.65 29.75L124.65 29.75Q124.60 29.86 124.37 30.21Q124.14 30.56 124.01 30.79Q123.89 31.02 123.71 31.34L123.71 31.34Q123.37 32.03 123.37 32.49L123.37 32.49Q123.37 33.07 124.16 33.07Q124.95 33.07 125.79 32.53Q126.64 31.99 127.25 31.34L127.25 31.34Q128.86 29.62 129.08 29.62L129.08 29.62Q129.53 29.62 129.53 31.15ZM140.72 19.60L140.72 19.60Q140.94 19.47 141.32 19.47Q141.69 19.47 142.27 19.90Q142.86 20.34 142.86 20.65Q142.86 20.97 142.63 21.16Q142.41 21.35 141.07 22.57Q139.73 23.79 138.00 25.38Q136.28 26.97 135.25 27.89L135.25 27.89Q135.11 29.53 135.11 31.28Q135.11 33.03 135.58 33.03L135.58 33.03Q136.57 32.90 137.97 31.45L137.97 31.45Q138.48 30.92 138.98 30.37Q139.49 29.82 139.60 29.73Q139.71 29.63 139.88 29.63L139.88 29.63Q140.19 29.63 140.27 29.99Q140.34 30.35 140.34 31.03Q140.34 31.70 140.26 31.89L140.26 31.89Q139.80 32.85 138.10 34.22Q136.40 35.60 134.87 35.60L134.87 35.60Q132.40 35.60 132.40 32.18L132.40 32.18Q132.40 31.48 132.50 30.49L132.50 30.49Q129.65 33.50 127.90 35.70L127.90 35.70Q127.77 35.89 127.34 35.89Q126.91 35.89 126.38 35.46Q125.85 35.03 125.85 34.68Q125.85 34.33 125.92 34.13L125.92 34.13Q126.11 33.44 128.12 31.27Q130.12 29.10 132.70 26.88L132.70 26.88Q132.64 25.41 132.64 24.62Q132.64 23.82 132.54 23.82Q132.45 23.82 131.91 24.32Q131.37 24.81 131.06 24.81Q130.76 24.81 130.51 24.27Q130.26 23.72 130.26 23.50L130.26 23.50Q130.26 22.73 131.57 21.53Q132.88 20.34 133.97 20.34L133.97 20.34Q134.28 20.34 134.78 20.65Q135.28 20.97 135.32 21.35L135.32 21.35Q135.44 23.14 135.44 24.32L135.44 24.32Q138.12 21.40 140.72 19.60Z" fill="#ffffff"></path></g>
        
      </svg>